<svg xmlns="http://www.w3.org/2000/svg" width="24" height="24" viewBox="84.005 0 24 24"><g data-name="iconfinder_38-instagram_1161953"><path d="M96.005 5.758c-3.387 0-6.194 2.758-6.194 6.194a6.175 6.175 0 0 0 6.194 6.193c3.435 0 6.193-2.806 6.193-6.193 0-3.388-2.806-6.194-6.193-6.194Zm0 10.161a3.986 3.986 0 0 1-3.968-3.967 3.986 3.986 0 0 1 3.968-3.968 3.986 3.986 0 0 1 3.967 3.968 3.986 3.986 0 0 1-3.967 3.967Z" fill="#03539c" fill-rule="evenodd" data-name="Path 12"/><path d="M101.037 5.513a1.403 1.403 0 1 1 0 .1z" fill="#03539c" fill-rule="evenodd" data-name="Ellipse 5"/><path d="M106.07 1.984C104.81.677 103.02 0 100.987 0h-9.967c-4.21 0-7.016 2.806-7.016 7.016v9.92c0 2.08.677 3.87 2.032 5.177C87.343 23.37 89.085 24 91.069 24h9.871c2.08 0 3.823-.678 5.08-1.887 1.307-1.258 1.985-3.049 1.985-5.13V7.017c0-2.032-.678-3.774-1.936-5.032Zm-.194 15c0 1.5-.533 2.71-1.404 3.532-.87.823-2.08 1.258-3.532 1.258h-9.87c-1.452 0-2.662-.435-3.533-1.258-.871-.87-1.307-2.08-1.307-3.58v-9.92c0-1.452.436-2.661 1.307-3.532.822-.823 2.08-1.258 3.532-1.258h9.968c1.451 0 2.661.435 3.532 1.306.823.871 1.307 2.08 1.307 3.484v9.968Z" fill="#03539c" fill-rule="evenodd" data-name="Path 13"/></g></svg>