<svg xmlns="http://www.w3.org/2000/svg" width="230" height="120" viewBox="90 30 230 120"><g data-name="Group 1"><path d="M229.254 100.33h-8.99l-14.89-22.87c-1.113 1.03-1.63 2.34-2.556 3.515 2.503 2.652 4.002 5.785 3.881 9.45a11.931 11.931 0 0 1-2.774 7.401 11.27 11.27 0 0 1-12.954 3.364c-4.817-1.937-7.76-6.982-7.222-12.605h6.835c.617.622.277 1.514.446 2.288.514 2.35 2.495 3.915 4.64 3.551a4.346 4.346 0 0 0 3.65-5.033 6.082 6.082 0 0 0-1.65-3.348c-1.358-1.476-2.682-2.984-4.11-4.578l3.537-5.51c1.166-1.817 2.338-3.633 3.633-5.646l-18.473-28.48c3.03-.47 5.882-.09 8.819-.245l14.18 21.767 9.156-14.046h-9.592v-7.653h3.816c3.81.003 7.629.165 11.428-.036 3.43-.18 5.49 3.96 3.94 6.7-.366.648-.762 1.28-1.17 1.904-4.302 6.63-8.609 13.257-13.047 20.089l19.467 30.02Z" fill="#03539c" fill-rule="evenodd" data-name="Path 37"/><path d="M253.478 64.957c1.122-.157 2.006-.295 2.893-.399a6.74 6.74 0 0 0 3.306-1.266 4.934 4.934 0 0 0 2.01-5.118c-.33-1.866-1.536-2.938-3.314-3.544-3.877-1.325-7.898-2.223-11.668-3.865-3.93-1.71-6.226-4.637-6.728-9.092h7.169c1.989 2.994 5.176 4.154 8.572 4.943 2.11.44 4.19 1.015 6.228 1.72 8.837 3.274 9.579 15.149 3.475 19.805-.18.135-.377.242-.748.475 2.236 1.945 4 4.373 5.156 7.101 4.982 11.907-3.89 25.109-16.62 24.7-8.14-.26-15.461-7.186-16.178-15.508-.248-2.884-.04-5.807-.04-8.89h6.97c.436 2.12.171 4.268.2 6.395.044 3.414 1.256 6.265 3.979 8.374a9.435 9.435 0 0 0 10.711.724 10.52 10.52 0 0 0 4.942-10.077c-.661-4.896-3.973-8.212-8.892-8.91-.436-.061-.867-.152-1.448-.255a66.002 66.002 0 0 1 .025-7.313Z" fill="#03539c" fill-rule="evenodd" data-name="Path 38"/><path d="M90.22 68.574c2.823-6.715 7.058-12.154 13.939-15.002 7.916-3.277 17.217 1.297 19.798 9.634a9.036 9.036 0 0 0-2.017 6.88c-6.309 2.927-10.268 7.776-12.015 14.606-3.207.39-6.003-.736-8.62-2.351-4.733-2.92-8.69-7.86-11.085-13.767Z" fill="#03539c" fill-rule="evenodd" data-name="Path 39"/><path d="M134.899 74.054a8.817 8.817 0 0 0 1.905-6.757c6.302-2.986 10.399-7.837 12.042-14.581 8.302-1.08 16.912 8.209 19.74 16.115-3.307 7.261-7.88 13.483-16.34 15.595-7.27 1.816-15.178-2.954-17.347-10.372Z" fill="#03539c" fill-rule="evenodd" data-name="Path 40"/><path d="M134.379 65.002a8.619 8.619 0 0 0-6.616-2.134c-1.418-2.994-3.104-5.784-5.632-7.977a19.97 19.97 0 0 0-8.36-4.38c-.699-7.633 5.98-16.439 15.57-20.511 7.37 3.603 13.301 8.716 15.095 17.24 1.804 8.574-4.238 16.204-10.057 17.762Z" fill="#03539c" fill-rule="evenodd" data-name="Path 41"/><path d="M123.926 72.322c1.887 1.84 4.145 2.416 6.693 2.25 2.668 6.348 7.25 10.508 13.836 12.345 1.305 7.356-6.606 16.944-15.188 20.37-6.627-1.954-16.028-11.033-15.668-20.125.265-6.665 3.837-12.143 10.327-14.84Z" fill="#03539c" fill-rule="evenodd" data-name="Path 42"/><path d="M285.543 41.725h6.892c.565.745.302 1.595.304 2.383.029 12.691.02 25.383.05 38.075.01 4.861 2.577 8.703 6.67 10.13 6.239 2.176 12.746-2.463 12.97-9.286.076-2.296.012-4.597.012-6.998a43.69 43.69 0 0 1 7.177-.039c.417 6.717.62 13.26-4.312 18.617-4.506 4.892-10.043 6.933-16.575 5.331-6.774-1.66-10.836-6.22-12.71-12.825a17.728 17.728 0 0 1-.603-4.874c.007-12.99.017-25.98.03-38.97-.002-.439.051-.878.095-1.544Z" fill="#03539c" fill-rule="evenodd" data-name="Path 43"/><g data-name="Subtraction 3"><path d="M140.377 149.075a9.445 9.445 0 0 1-5.025-1.442 6.483 6.483 0 0 1-1.8-1.57 3.71 3.71 0 0 1-.785-2.156c-.09-3.203-.073-6.443-.056-9.577v-.002c.006-1.223.013-2.488.013-3.723a2.381 2.381 0 0 1 1.261-.325c.207 0 .415.017.635.034.22.018.445.035.688.038v7.42c0 .441.008.89.016 1.325.017.963.035 1.96-.034 2.933a5.329 5.329 0 0 0 .437 2.826 3.894 3.894 0 0 0 2.166 1.847c.821.319 1.695.48 2.575.475a7.194 7.194 0 0 0 2.438-.415 4.789 4.789 0 0 0 1.884-1.196 3.136 3.136 0 0 0 .865-2.237 641.82 641.82 0 0 1-.003-3.826v-1.509a2.747 2.747 0 0 0-1.906-.964 2.533 2.533 0 0 0-1.66.733 4.977 4.977 0 0 0-.333 2.385c.05.634-.001 1.271-.154 1.888a1.263 1.263 0 0 1-.933.34c-.138 0-.278-.012-.426-.024h-.012c-.143-.01-.303-.024-.466-.024-.135 0-.27.01-.403.032a25.066 25.066 0 0 1-.006-4.88l1.233-1.565.014-.017c-.852-.963-1.82-2.054-1.127-3.527a3.405 3.405 0 0 1 1.502-1.6 5.598 5.598 0 0 1 2.158-.593 8.2 8.2 0 0 1 .794-.04c2.204 0 3.592 1.013 4.367 3.19a2.886 2.886 0 0 1-.53 1.457c-.17.256-.353.503-.55.739-.078.097-.152.189-.222.28a9.121 9.121 0 0 1 1.528 4.813 13.014 13.014 0 0 1-.863 4.826 4.52 4.52 0 0 1-2.335 2.545 11.012 11.012 0 0 1-3.528.987c-.47.066-.943.099-1.417.1Zm3.238-17.1a1.978 1.978 0 0 0-1.828 1.239c.654 1.141 1.127 1.566 1.746 1.566.46 0 1.02-.233 1.936-.802.177-.37.192-.798.041-1.18a1.216 1.216 0 0 0-.78-.62 3.694 3.694 0 0 0-1.115-.203Z" fill="#03539c" fill-rule="evenodd"/><path d="M140.377 149.075a9.445 9.445 0 0 1-5.025-1.442 6.483 6.483 0 0 1-1.8-1.57 3.71 3.71 0 0 1-.785-2.156c-.09-3.203-.073-6.443-.056-9.577v-.002h0c.006-1.223.013-2.488.013-3.723a2.381 2.381 0 0 1 1.261-.325c.207 0 .415.017.635.034.22.018.445.035.688.038v7.42c0 .441.008.89.016 1.325.017.963.035 1.96-.034 2.933a5.329 5.329 0 0 0 .437 2.826 3.894 3.894 0 0 0 2.166 1.847c.821.319 1.695.48 2.575.475a7.194 7.194 0 0 0 2.438-.415 4.789 4.789 0 0 0 1.884-1.196 3.136 3.136 0 0 0 .865-2.237 641.82 641.82 0 0 1-.003-3.826v-1.509a2.747 2.747 0 0 0-1.906-.964 2.533 2.533 0 0 0-1.66.733 4.977 4.977 0 0 0-.333 2.385c.05.634-.001 1.271-.154 1.888a1.263 1.263 0 0 1-.933.34c-.138 0-.278-.012-.426-.024h-.012c-.143-.01-.303-.024-.466-.024-.135 0-.27.01-.403.032a25.066 25.066 0 0 1-.006-4.88l1.233-1.565.014-.017c-.852-.963-1.82-2.054-1.127-3.527a3.405 3.405 0 0 1 1.502-1.6 5.598 5.598 0 0 1 2.158-.593 8.2 8.2 0 0 1 .794-.04c2.204 0 3.592 1.013 4.367 3.19a2.886 2.886 0 0 1-.53 1.457c-.17.256-.353.503-.55.739-.078.097-.152.189-.222.28a9.121 9.121 0 0 1 1.528 4.813 13.014 13.014 0 0 1-.863 4.826 4.52 4.52 0 0 1-2.335 2.545 11.012 11.012 0 0 1-3.528.987c-.47.066-.943.099-1.417.1Zm3.238-17.1a1.978 1.978 0 0 0-1.828 1.239c.654 1.141 1.127 1.566 1.746 1.566.46 0 1.02-.233 1.936-.802.177-.37.192-.798.041-1.18a1.216 1.216 0 0 0-.78-.62 3.694 3.694 0 0 0-1.115-.203Z" stroke-linejoin="round" stroke-linecap="round" stroke="rgba(0,0,0,0 )" fill="transparent"/></g><g data-name="Subtraction 6"><path d="M265.188 149.067a5.302 5.302 0 0 1-1.858-.359c-1.454-.547-2.135-1.36-2.144-2.563-.006-.875-.015-1.764-.023-2.625v-.006c-.038-3.82-.077-7.77.102-11.622a4.527 4.527 0 0 1 3.613-1.792 8.21 8.21 0 0 1 2.667.528c.199-.05.404-.105.603-.159a8.636 8.636 0 0 1 2.251-.398c.475-.003.947.082 1.39.25a4.078 4.078 0 0 1 1.599.982c.433.474.662 1.1.639 1.741.006 3.713.005 7.503.004 11.17v4.323a3.736 3.736 0 0 1-1.301.269 3.428 3.428 0 0 1-1.182-.234v-15.894a2.202 2.202 0 0 0-1.42-.706c-.46.03-.892.226-1.216.551v3.679c0 2.84.004 5.777-.005 8.692a4.453 4.453 0 0 1-1.052 3.05 3.502 3.502 0 0 1-2.667 1.123Zm-.185-17.077a2.25 2.25 0 0 0-1.251.448v14.016c.316.395.782.64 1.286.676a1.717 1.717 0 0 0 1.065-.438v-14.378a2.352 2.352 0 0 0-1.1-.324Z" fill="#03539c" fill-rule="evenodd"/><path d="M265.188 149.067a5.302 5.302 0 0 1-1.858-.359c-1.454-.547-2.135-1.36-2.144-2.563-.006-.875-.015-1.764-.023-2.625v-.006c-.038-3.82-.077-7.77.102-11.622a4.527 4.527 0 0 1 3.613-1.792 8.21 8.21 0 0 1 2.667.528c.199-.05.404-.105.603-.159a8.636 8.636 0 0 1 2.251-.398c.475-.003.947.082 1.39.25a4.078 4.078 0 0 1 1.599.982c.433.474.662 1.1.639 1.741.006 3.713.005 7.503.004 11.17v4.323a3.736 3.736 0 0 1-1.301.269 3.428 3.428 0 0 1-1.182-.234v-15.894a2.202 2.202 0 0 0-1.42-.706c-.46.03-.892.226-1.216.551v3.679c0 2.84.004 5.777-.005 8.692a4.453 4.453 0 0 1-1.052 3.05 3.502 3.502 0 0 1-2.667 1.123Zm-.185-17.077a2.25 2.25 0 0 0-1.251.448v14.016c.316.395.782.64 1.286.676a1.717 1.717 0 0 0 1.065-.438v-14.378a2.352 2.352 0 0 0-1.1-.324Z" stroke-linejoin="round" stroke-linecap="round" stroke="rgba(0,0,0,0 )" fill="transparent"/></g><g data-name="Subtraction 2"><path d="M98.578 150a3.43 3.43 0 0 1-.907-.16c.012-.995.145-1.985.397-2.947.234-.924.372-1.87.41-2.821a6.899 6.899 0 0 0-1.88-.23c-.55 0-1.099.042-1.68.087l-.523.039-.448 2.089-.017.077-.765 3.572c-.28.18-.606.274-.938.27a4.442 4.442 0 0 1-.454-.031c-.115-.012-.235-.024-.359-.03a10.09 10.09 0 0 1 .38-3.3c.217-.798.346-1.616.385-2.442a1.3 1.3 0 0 0-.962-.296h-.215a1.3 1.3 0 0 1-.773-.18c-.346-.508-.229-1.006-.094-1.582.014-.059.028-.118.041-.18l1.077-.095h.008l1.252-.11c.536-1.309.866-2.692.977-4.102.034-.26.069-.529.107-.793a3.882 3.882 0 0 0-1.44-.225c-.145 0-.292.003-.433.007h-.006c-.138.003-.282.006-.423.006a4.68 4.68 0 0 1-.953-.082c-.493-.499-.351-1.098-.2-1.733l.023-.096a3.185 3.185 0 0 1 1.444-.276c.171 0 .347.006.516.012.17.005.35.01.524.01a3.379 3.379 0 0 0 1.511-.286c.237-.822.416-1.659.534-2.506.13-1.02.369-2.023.713-2.993.257-.161.553-.251.857-.26.305.009.602.098.862.258a9.406 9.406 0 0 1-.373 2.876c-.25.903-.388 1.833-.41 2.77a9.07 9.07 0 0 0 1.72.143c.359 0 .724-.013 1.076-.026.331-.012.706-.025 1.074-.025h.2c.28-.91.486-1.84.617-2.782.127-1.003.364-1.988.706-2.94.224-.173.5-.263.783-.254.213.007.426.03.636.07l.224.033a8.856 8.856 0 0 1-.33 3.337c-.196.734-.32 1.485-.37 2.243.29.25.673.366 1.054.323a1.3 1.3 0 0 1 .936.254c.26.531.272 1.15.03 1.691-.324.19-.698.277-1.073.25h-.437c-.346-.013-.69.04-1.016.159a18.597 18.597 0 0 0-.715 3.252c-.076.48-.155.974-.249 1.469.5.23 1.046.335 1.595.308.12 0 .237 0 .352-.004.115-.004.231-.004.345-.004.362-.01.723.03 1.074.121.437.494.307 1.055.144 1.766l-.005.022a3.974 3.974 0 0 1-1.273.173c-.212 0-.43-.008-.64-.016h-.011c-.214-.008-.436-.017-.661-.017-.4-.007-.8.034-1.19.123a8.41 8.41 0 0 0-.871 3.133c-.087.883-.288 1.75-.597 2.582-.254.2-.57.306-.893.299Zm-1.032-13.405a7.034 7.034 0 0 0-1.839.204l-.89 4.816a9.99 9.99 0 0 0 2.187.247 11.074 11.074 0 0 0 1.98-.189c.55-1.638.863-3.347.93-5.073-.24.016-.493.023-.773.023-.272 0-.542-.007-.804-.014h-.013a27.762 27.762 0 0 0-.777-.014Z" fill="#03539c" fill-rule="evenodd"/><path d="M98.578 150a3.43 3.43 0 0 1-.907-.16c.012-.995.145-1.985.397-2.947.234-.924.372-1.87.41-2.821a6.899 6.899 0 0 0-1.88-.23c-.55 0-1.099.042-1.68.087l-.523.039-.448 2.089-.017.077-.765 3.572c-.28.18-.606.274-.938.27a4.442 4.442 0 0 1-.454-.031c-.115-.012-.235-.024-.359-.03a10.09 10.09 0 0 1 .38-3.3c.217-.798.346-1.616.385-2.442a1.3 1.3 0 0 0-.962-.296h-.215a1.3 1.3 0 0 1-.773-.18c-.346-.508-.229-1.006-.094-1.582.014-.059.028-.118.041-.18l1.077-.095h.008l1.252-.11c.536-1.309.866-2.692.977-4.102.034-.26.069-.529.107-.793a3.882 3.882 0 0 0-1.44-.225c-.145 0-.292.003-.433.007h-.006c-.138.003-.282.006-.423.006a4.68 4.68 0 0 1-.953-.082c-.493-.499-.351-1.098-.2-1.733l.023-.096a3.185 3.185 0 0 1 1.444-.276c.171 0 .347.006.516.012.17.005.35.01.524.01a3.379 3.379 0 0 0 1.511-.286c.237-.822.416-1.659.534-2.506.13-1.02.369-2.023.713-2.993.257-.161.553-.251.857-.26.305.009.602.098.862.258a9.406 9.406 0 0 1-.373 2.876c-.25.903-.388 1.833-.41 2.77a9.07 9.07 0 0 0 1.72.143c.359 0 .724-.013 1.076-.026.331-.012.706-.025 1.074-.025h.2c.28-.91.486-1.84.617-2.782.127-1.003.364-1.988.706-2.94.224-.173.5-.263.783-.254.213.007.426.03.636.07l.224.033a8.856 8.856 0 0 1-.33 3.337c-.196.734-.32 1.485-.37 2.243.29.25.673.366 1.054.323a1.3 1.3 0 0 1 .936.254c.26.531.272 1.15.03 1.691-.324.19-.698.277-1.073.25h-.437c-.346-.013-.69.04-1.016.159a18.597 18.597 0 0 0-.715 3.252c-.076.48-.155.974-.249 1.469.5.23 1.046.335 1.595.308.12 0 .237 0 .352-.004.115-.004.231-.004.345-.004.362-.01.723.03 1.074.121.437.494.307 1.055.144 1.766l-.005.022a3.974 3.974 0 0 1-1.273.173c-.212 0-.43-.008-.64-.016h-.011c-.214-.008-.436-.017-.661-.017-.4-.007-.8.034-1.19.123a8.41 8.41 0 0 0-.871 3.133c-.087.883-.288 1.75-.597 2.582-.254.2-.57.306-.893.299Zm-1.032-13.405a7.034 7.034 0 0 0-1.839.204l-.89 4.816a9.99 9.99 0 0 0 2.187.247 11.074 11.074 0 0 0 1.98-.189c.55-1.638.863-3.347.93-5.073-.24.016-.493.023-.773.023-.272 0-.542-.007-.804-.014h-.013a27.762 27.762 0 0 0-.777-.014Z" stroke-linejoin="round" stroke-linecap="round" stroke="rgba(0,0,0,0 )" fill="transparent"/></g><g data-name="Subtraction 5"><path d="M253.967 149.008c-1-.013-1.978-.29-2.836-.801a2.91 2.91 0 0 1-1.49-1.96 8.374 8.374 0 0 1-.027-2.468c.016-.197.034-.4.048-.6.368-.17.771-.25 1.176-.236.156 0 .31.007.46.013.151.006.306.013.456.013a3.7 3.7 0 0 0 .339-.014c.074.497.098 1 .071 1.502a5.52 5.52 0 0 0 .213 2.025 2.785 2.785 0 0 0 1.61.59 2.71 2.71 0 0 0 1.744-.73c.006-.37.023-.745.04-1.107.086-.95.056-1.909-.088-2.852a1.62 1.62 0 0 0-1.027-.792 1.138 1.138 0 0 1-.632-.397c-.448-1.084.13-1.435.744-1.806a2.47 2.47 0 0 0 .925-.793c.13-2.055.141-4.116.032-6.172a2.338 2.338 0 0 0-1.287-.486 1.83 1.83 0 0 0-1.318.672v5.302a6.804 6.804 0 0 1-1.696 1.707 3.329 3.329 0 0 1-1.884.546 9.041 9.041 0 0 1-3.217-.792c-.978-.99-.953-2.22-.93-3.409.005-.27.01-.547.004-.817a67.699 67.699 0 0 1-.007-1.998c0-.294.003-.571.003-.849a4.503 4.503 0 0 1 1.626-1.715 3.996 3.996 0 0 1 2.022-.508c.54.006 1.078.079 1.6.216a4.95 4.95 0 0 0 1.22.158 5.401 5.401 0 0 0 1.345-.182 6.629 6.629 0 0 1 1.603-.216 3.361 3.361 0 0 1 2.509.943c.717.733 1.079 1.887 1.046 3.336-.01.47.02.96.048 1.432.097 1.583.196 3.22-1.128 4.666 1.256 1.358 1.178 3.066 1.103 4.719-.01.22-.021.448-.028.673-.033 1.039-.6 1.865-1.682 2.457a5.625 5.625 0 0 1-2.71.73Zm-4.68-17.049a2.091 2.091 0 0 0-1.171.433c-.21 1.79-.21 3.6 0 5.39.306.317.717.511 1.157.546.474-.04.914-.265 1.223-.628-.007-.52.026-1.043.062-1.597.08-1.256.164-2.557-.259-3.804a1.878 1.878 0 0 0-1.011-.34Z" fill="#03539c" fill-rule="evenodd"/><path d="M253.967 149.008c-1-.013-1.978-.29-2.836-.801a2.91 2.91 0 0 1-1.49-1.96 8.374 8.374 0 0 1-.027-2.468c.016-.197.034-.4.048-.6.368-.17.771-.25 1.176-.236.156 0 .31.007.46.013.151.006.306.013.456.013a3.7 3.7 0 0 0 .339-.014c.074.497.098 1 .071 1.502a5.52 5.52 0 0 0 .213 2.025 2.785 2.785 0 0 0 1.61.59 2.71 2.71 0 0 0 1.744-.73c.006-.37.023-.745.04-1.107.086-.95.056-1.909-.088-2.852a1.62 1.62 0 0 0-1.027-.792 1.138 1.138 0 0 1-.632-.397c-.448-1.084.13-1.435.744-1.806a2.47 2.47 0 0 0 .925-.793c.13-2.055.141-4.116.032-6.172a2.338 2.338 0 0 0-1.287-.486 1.83 1.83 0 0 0-1.318.672v5.302a6.804 6.804 0 0 1-1.696 1.707 3.329 3.329 0 0 1-1.884.546 9.041 9.041 0 0 1-3.217-.792c-.978-.99-.953-2.22-.93-3.409.005-.27.01-.547.004-.817a67.699 67.699 0 0 1-.007-1.998c0-.294.003-.571.003-.849a4.503 4.503 0 0 1 1.626-1.715 3.996 3.996 0 0 1 2.022-.508c.54.006 1.078.079 1.6.216a4.95 4.95 0 0 0 1.22.158 5.401 5.401 0 0 0 1.345-.182 6.629 6.629 0 0 1 1.603-.216 3.361 3.361 0 0 1 2.509.943c.717.733 1.079 1.887 1.046 3.336-.01.47.02.96.048 1.432.097 1.583.196 3.22-1.128 4.666 1.256 1.358 1.178 3.066 1.103 4.719-.01.22-.021.448-.028.673-.033 1.039-.6 1.865-1.682 2.457a5.625 5.625 0 0 1-2.71.73Zm-4.68-17.049a2.091 2.091 0 0 0-1.171.433c-.21 1.79-.21 3.6 0 5.39.306.317.717.511 1.157.546.474-.04.914-.265 1.223-.628-.007-.52.026-1.043.062-1.597.08-1.256.164-2.557-.259-3.804a1.878 1.878 0 0 0-1.011-.34Z" stroke-linejoin="round" stroke-linecap="round" stroke="rgba(0,0,0,0 )" fill="transparent"/></g><g data-name="Subtraction 4"><path d="M198.453 148.869a4.698 4.698 0 0 1-.832-.101l-.24-.045a1.736 1.736 0 0 1-.578-1.015 2.307 2.307 0 0 0-.324-.757 9.357 9.357 0 0 0-2.072-2.158 4.677 4.677 0 0 0-2.798-.904c-.155 0-.314.007-.474.02-.374.032-.771.045-1.252.045-.35 0-.702-.008-1.043-.016a44.15 44.15 0 0 0-.987-.014c-.659-.554-.466-1.14-.297-1.654.259-.176.571-.255.882-.225a1.7 1.7 0 0 0 .903-.192c-2.133-1.869-1.988-4.142-1.848-6.34a13.155 13.155 0 0 0-.035-3.02 4.673 4.673 0 0 1 1.603-1.844 3.782 3.782 0 0 1 2.049-.56c.456.004.91.06 1.354.168a6.828 6.828 0 0 0 1.567.191 6.85 6.85 0 0 0 1.457-.163c.494-.11.998-.17 1.504-.175a3.198 3.198 0 0 1 2.602 1.07c.583.707.884 1.759.888 3.126v.22c.002.661.005 1.345-.01 2.018-.03 1.218-.373 2.143-1.022 2.75-.648.607-1.62.914-2.89.914h-.098c-2.448-.03-3.63-1.206-3.717-3.705-.015-.427-.003-.86.008-1.28a8.98 8.98 0 0 0-.18-2.614 1.44 1.44 0 0 0-1.128-.581c-.452.03-.893.153-1.295.362v1.871c0 1.44-.004 2.93.005 4.39.007 1.25.884 1.917 1.742 2.405.448.255.914.499 1.365.734a17.697 17.697 0 0 1 3.236 2.003c1.388 1.167 2.961 2.485 3.026 4.71a1.631 1.631 0 0 1-1.07.366Zm-1.9-16.887a1.87 1.87 0 0 0-1.018.328 13.36 13.36 0 0 0-.105 5.547c.332.304.758.487 1.207.518.43-.023.832-.217 1.118-.538.25-1.82.244-3.668-.015-5.487a2.477 2.477 0 0 0-1.188-.368Z" fill="#03539c" fill-rule="evenodd"/><path d="M198.453 148.869a4.698 4.698 0 0 1-.832-.101l-.24-.045a1.736 1.736 0 0 1-.578-1.015 2.307 2.307 0 0 0-.324-.757 9.357 9.357 0 0 0-2.072-2.158 4.677 4.677 0 0 0-2.798-.904c-.155 0-.314.007-.474.02-.374.032-.771.045-1.252.045-.35 0-.702-.008-1.043-.016a44.15 44.15 0 0 0-.987-.014c-.659-.554-.466-1.14-.297-1.654.259-.176.571-.255.882-.225a1.7 1.7 0 0 0 .903-.192c-2.133-1.869-1.988-4.142-1.848-6.34a13.155 13.155 0 0 0-.035-3.02 4.673 4.673 0 0 1 1.603-1.844 3.782 3.782 0 0 1 2.049-.56c.456.004.91.06 1.354.168a6.828 6.828 0 0 0 1.567.191 6.85 6.85 0 0 0 1.457-.163c.494-.11.998-.17 1.504-.175a3.198 3.198 0 0 1 2.602 1.07c.583.707.884 1.759.888 3.126v.22c.002.661.005 1.345-.01 2.018-.03 1.218-.373 2.143-1.022 2.75-.648.607-1.62.914-2.89.914h-.098c-2.448-.03-3.63-1.206-3.717-3.705-.015-.427-.003-.86.008-1.28a8.98 8.98 0 0 0-.18-2.614 1.44 1.44 0 0 0-1.128-.581c-.452.03-.893.153-1.295.362v1.871c0 1.44-.004 2.93.005 4.39.007 1.25.884 1.917 1.742 2.405.448.255.914.499 1.365.734a17.697 17.697 0 0 1 3.236 2.003c1.388 1.167 2.961 2.485 3.026 4.71a1.631 1.631 0 0 1-1.07.366Zm-1.9-16.887a1.87 1.87 0 0 0-1.018.328 13.36 13.36 0 0 0-.105 5.547c.332.304.758.487 1.207.518.43-.023.832-.217 1.118-.538.25-1.82.244-3.668-.015-5.487a2.477 2.477 0 0 0-1.188-.368Z" stroke-linejoin="round" stroke-linecap="round" stroke="rgba(0,0,0,0 )" fill="transparent"/></g><path d="M206.363 138.639c1.663.245 3.315.143 4.723 1.05 1.645-.77 3.265-1.147 5.008-.498 1.707.637 2.43 1.495 2.471 3.288.045 2.004.01 4.01.01 5.96-.857.676-1.625.348-2.467.279-.418-2.46.082-4.855-.269-7.17-1.57-1-1.57-1-3.192-.106-.607 1.522-.009 3.2-.386 4.813-.67.479-1.387.303-2.188.147-.636-1.608.185-3.397-.516-4.969-1.623-.895-1.623-.895-3.176.183-.478 2.278.164 4.686-.32 6.962-.725.42-1.391.237-2.288.205 0-3.423-.069-6.825.031-10.222.045-1.466 1.384-1.992 2.497-2.606 2.374-1.31 4.647-2.725 5.256-5.584.905-.117 1.632-.22 2.443.102-.475 4.642-4.909 5.508-7.637 8.166Z" fill="#03539c" fill-rule="evenodd" data-name="Path 49"/><path d="M313.824 148.69a4.546 4.546 0 0 1-2.638-.17v-7.925c0-2.311-.075-4.626.014-6.933.09-2.243 1.745-3.58 4.27-3.634 2.328-.048 4.425 1.278 4.467 3.166.114 5.123.039 10.25.039 15.276-.912.487-1.628.3-2.535.242v-15.766c-1.125-1.145-2.12-1.333-3.202-.328-.478 3.813-.06 7.646-.216 11.467-.063 1.535.247 3.087-.2 4.606Z" fill="#03539c" fill-rule="evenodd" data-name="Path 50"/><path d="M282.878 132.566c-.877-1.031-1.81-.596-2.998-.15v16.09a3.512 3.512 0 0 1-2.769.059v-6.851c0-2.614-.038-5.23.018-7.843.051-2.389 1.663-3.768 4.31-3.81 2.668-.044 4.456 1.301 4.49 3.618.076 4.92.024 9.844.024 14.885-1.035.25-1.92.651-2.704-.306-.377-4.426-.053-8.862-.173-13.29-.022-.801.19-1.628-.198-2.402Z" fill="#03539c" fill-rule="evenodd" data-name="Path 51"/><g data-name="Subtraction 1"><path d="M112.831 149.096c-.095 0-.192 0-.288-.007-1.596-.072-2.876-.574-3.606-1.411a3.023 3.023 0 0 1-.69-2.357c.031-.423.038-.848.02-1.272-.005-.244-.011-.493-.008-.742.026-1.677.345-2.729 1.032-3.412.688-.683 1.75-1.002 3.444-1.036.147-.004.3-.005.496-.005h1.065c-.004-.667.02-1.32.044-1.95a15.781 15.781 0 0 0-.23-4.352 2.517 2.517 0 0 0-1.499-.538 2.81 2.81 0 0 0-1.31.362 3.195 3.195 0 0 0-.5 1.996c.017.49-.054.978-.21 1.442a1.505 1.505 0 0 1-.927.288 4.19 4.19 0 0 1-.514-.041 4.005 4.005 0 0 0-.401-.036c-.325-.27-.509-1.054-.48-2.045a4.434 4.434 0 0 1 .56-2.264c.747-.99 2.196-1.605 3.785-1.605a5.985 5.985 0 0 1 1.952.321c1.756.604 2.38 1.597 2.387 3.796v.57c.009 3.409.018 6.934-.006 10.4a3.834 3.834 0 0 1-1.124 2.835 4.236 4.236 0 0 1-2.992 1.063Zm-.279-8.407a2.235 2.235 0 0 0-1.58.752 13.22 13.22 0 0 0-.188 3.908c.017.342.035.697.044 1.045a2.799 2.799 0 0 0 1.769.784 2.647 2.647 0 0 0 1.669-.717c.013-.388.036-.78.059-1.158.083-1.409.161-2.739-.214-4.037a2.795 2.795 0 0 0-1.559-.577Z" fill="#03539c" fill-rule="evenodd"/><path d="M112.831 149.096h0c-.095 0-.192 0-.288-.007-1.596-.072-2.876-.574-3.606-1.411a3.023 3.023 0 0 1-.69-2.357c.031-.423.038-.848.02-1.272-.005-.244-.011-.493-.008-.742.026-1.677.345-2.729 1.032-3.412.688-.683 1.75-1.002 3.444-1.036.147-.004.3-.005.496-.005h1.065c-.004-.667.02-1.32.044-1.95a15.781 15.781 0 0 0-.23-4.352 2.517 2.517 0 0 0-1.499-.538 2.81 2.81 0 0 0-1.31.362 3.195 3.195 0 0 0-.5 1.996c.017.49-.054.978-.21 1.442a1.505 1.505 0 0 1-.927.288 4.19 4.19 0 0 1-.514-.041 4.005 4.005 0 0 0-.401-.036c-.325-.27-.509-1.054-.48-2.045a4.434 4.434 0 0 1 .56-2.264c.747-.99 2.196-1.605 3.785-1.605a5.985 5.985 0 0 1 1.952.321c1.756.604 2.38 1.597 2.387 3.796v.57c.009 3.409.018 6.934-.006 10.4a3.834 3.834 0 0 1-1.124 2.835 4.236 4.236 0 0 1-2.992 1.063Zm-.279-8.407a2.235 2.235 0 0 0-1.58.752 13.22 13.22 0 0 0-.188 3.908c.017.342.035.697.044 1.045a2.799 2.799 0 0 0 1.769.784 2.647 2.647 0 0 0 1.669-.717c.013-.388.036-.78.059-1.158.083-1.409.161-2.739-.214-4.037a2.795 2.795 0 0 0-1.559-.577Z" stroke-linejoin="round" stroke-linecap="round" stroke="rgba(0,0,0,0 )" fill="transparent"/></g><path d="M157.582 132.899a2.453 2.453 0 0 0-2.75-.703c-1.031.668-.839 1.702-.842 2.65-.014 4.551-.006 9.102-.006 13.572-.763.683-1.475.48-2.356.272v-16.415c1.656-1.952 3.771-2.647 5.989-1.884 1.325.456 2.512 1.245 2.53 2.804.061 5.142.023 10.286.023 15.386-.882.397-1.59.336-2.588-.013v-15.67Z" fill="#03539c" fill-rule="evenodd" data-name="Path 53"/><path d="M181.624 132.558c-1.256-.79-2.1-.625-3.326-.143-.607 5.254.045 10.684-.331 16.067-.702.566-1.429.245-2.297.3v-16.384c2.217-3.08 5.947-3.146 8.457-.069v16.214c-.803.428-1.509.314-2.503-.025v-15.96Z" fill="#03539c" fill-rule="evenodd" data-name="Path 54"/><path d="M163.817 141.229c.713-.377 1.375-.216 2.14-.143.546 1.695-.05 3.514.408 5.262 1.015 1.032 2.081.875 3.285.09v-6.002c-.575-.955-1.537-.836-2.171-1.24a1.493 1.493 0 0 1-.012-1.351c.574-.48 1.503-.145 2.13-1.027.346-1.256.135-2.718.06-4.113a2.391 2.391 0 0 0-2.798-.441c-1.166.974-.385 2.416-.839 3.568-.607.437-1.273.274-1.906.225-.804-.715-.609-3.634.286-4.612 1.734-1.893 6.112-1.839 7.39.294 1.065 1.78.852 3.844.175 5.796a6.39 6.39 0 0 1-.549.987c1.675 2.516 1 5.32.782 7.99-.135 1.622-2.605 2.691-4.755 2.467-2.307-.244-3.652-1.413-3.765-3.361-.07-1.19-.04-2.386-.027-3.579.027-.275.083-.547.166-.81Z" fill="#03539c" fill-rule="evenodd" data-name="Path 55"/><path d="M120.53 141.306a3.402 3.402 0 0 1 2.465-.08c.377 1.653-.007 3.382.256 5.097 1.06 1.171 2.156 1.071 3.248.174v-13.906c-1.135-.712-2.03-.718-2.928-.124-.768 1.066-.168 2.355-.55 3.464a3.39 3.39 0 0 1-2.194.103c-.648-3.06-.292-4.315 1.48-5.263 2.267-1.215 4.656-.746 6.666 1.319.57 1.5.33 3.081.338 4.639.016 2.912.057 5.826-.023 8.736-.062 2.252-1.944 3.7-4.486 3.613-2.574-.086-4.185-1.435-4.262-3.633-.049-1.398-.01-2.801-.01-4.14Z" fill="#03539c" fill-rule="evenodd" data-name="Path 56"/><path d="M230.434 132.368c0 4.424.036 8.893-.018 13.36-.02 1.65-1.042 2.584-3.006 3.05-3.499.836-5.652-.83-5.662-4.378-.002-1.032 0-2.068 0-3.027.808-.591 1.517-.395 2.337-.232.459 1.715-.135 3.54.386 5.213 1.027 1.006 2.04.727 3.226.22v-13.991c-.817-.71-2.001-.807-2.922-.238-.88 1.13-.167 2.457-.736 3.529a2.547 2.547 0 0 1-1.94.115c-.763-2.916-.409-4.303 1.327-5.268 2.278-1.265 4.85-.733 7.008 1.647Z" fill="#03539c" fill-rule="evenodd" data-name="Path 57"/><path d="M299.866 141.335a3.745 3.745 0 0 1 2.58-.022v4.925c1.226 1.032 2.272 1.07 3.493.16v-8.769c-.573-.942-1.416-1.262-2.682-.498-.566.285-.165 1.208-.752 1.668a3.469 3.469 0 0 1-1.928-.029c-.307-2.805.974-3.79 5.245-3.966.514-1.37.076-2.881.344-4.29.75-.448 1.454-.348 2.301-.109v16.325c-1.746 2.066-3.726 2.686-6.026 1.968-1.729-.538-2.539-1.603-2.572-3.445-.022-1.324-.003-2.648-.003-3.918Z" fill="#03539c" fill-rule="evenodd" data-name="Path 58"/><path d="M236.557 146.307c1.106 1.026 2.112.955 3.305.158.275-1.442.106-3.002.135-4.547.027-1.56.005-3.12.005-4.426-1.362-2.658-5.091-3.374-4.694-6.93.71-.493 1.436-.295 2.321-.19-.106 2.064 1.422 3.117 2.794 4.194 1.668 1.31 2.422 2.86 2.243 5.01-.163 1.923 0 3.871-.048 5.806-.056 2.266-1.726 3.606-4.414 3.62-2.533.015-4.2-1.319-4.265-3.516-.041-1.397-.183-2.808.059-4.172.69-.4 1.529-.451 2.262-.137.412 1.67-.036 3.399.297 5.13Z" fill="#03539c" fill-rule="evenodd" data-name="Path 59"/><path d="M288.548 141.353c.836-.533 1.496-.349 2.243-.277.65 1.686-.015 3.516.401 5.19 1.051 1.121 2.102 1.035 3.147.283.246-.5.35-1.058.299-1.613.012-2.607.005-5.214.005-7.48-1.447-2.666-5.14-3.41-4.677-6.923.763-.445 1.416-.314 2.23-.162.012 2.176 1.727 3.26 3.175 4.464a4.8 4.8 0 0 1 1.92 4.261c-.115 2.084-.006 4.178-.06 6.266-.059 2.323-1.677 3.609-4.42 3.593-2.601-.015-4.171-1.29-4.252-3.522-.051-1.398-.01-2.8-.01-4.08Z" fill="#03539c" fill-rule="evenodd" data-name="Path 60"/><path d="M313.824 148.69c-.013-4.742-.034-9.486-.028-14.228 0-.635-.227-1.357.442-1.844.014 4.946.038 9.892.02 14.838-.001.41.377 1.066-.434 1.235Z" fill="#03539c" fill-rule="evenodd" data-name="Path 62"/><path d="M282.878 132.566c.448.283.444.74.442 1.186-.02 4.835-.045 9.67-.071 14.506-.47-.478-.404-1.088-.404-1.676.008-4.671.019-9.343.033-14.016Z" fill="#03539c" fill-rule="evenodd" data-name="Path 63"/></g></svg>