<svg xmlns="http://www.w3.org/2000/svg" width="75.328" height="13.579" viewBox="626.5 834.883 75.328 13.579"><g data-name="Group 342"><path d="m633.63 834.883 1.781 5.05 5.347.137-4.245 3.258 1.522 5.134-4.406-3.036-4.406 3.036 1.522-5.134-4.245-3.258 5.347-.137z" fill="#ffbe0b" fill-rule="evenodd" data-name="Polygon 5"/><path d="m648.897 834.883 1.782 5.05 5.346.137-4.245 3.258 1.522 5.134-4.405-3.036-4.406 3.036 1.522-5.134-4.245-3.258 5.346-.137z" fill="#ffbe0b" fill-rule="evenodd" data-name="Polygon 6"/><path d="m664.164 834.883 1.783 5.05 5.346.137-4.245 3.258 1.522 5.134-4.406-3.036-4.406 3.036 1.523-5.134-4.246-3.258 5.347-.137z" fill="#ffbe0b" fill-rule="evenodd" data-name="Polygon 7"/><path d="m694.7 834.883 1.782 5.05 5.346.137-4.245 3.258 1.522 5.134-4.405-3.036-4.406 3.036 1.522-5.134-4.245-3.258 5.346-.137z" fill="#f2f2f2" fill-rule="evenodd" data-name="Polygon 9"/><g data-name="Group 282"><path d="m679.432 834.883 1.782 5.05 5.347.137-4.245 3.258 1.522 5.134-4.406-3.036-4.406 3.036 1.522-5.134-4.245-3.258 5.347-.137 1.782-5.05Z" fill="#ffbe0b" fill-rule="evenodd" data-name="Path 120"/><path d="M679.431 845.426v-10.543l-1.781 5.05-5.347.137 4.245 3.257-1.522 5.135 4.405-3.036Z" fill="#ffbe0b" fill-rule="evenodd" data-name="Intersection 1"/></g></g></svg>