<svg xmlns="http://www.w3.org/2000/svg" width="23.913" height="23.912" viewBox="42.005 0 23.913 23.912"><path d="M56.312 18.292v-2.444c0-.519-.15-.778-.452-.778-.176 0-.347.083-.514.249v3.487c.167.166.338.25.514.25.301 0 .452-.255.452-.764Zm2.864-1.899h1.028v-.53c0-.528-.172-.793-.514-.793-.343 0-.514.265-.514.794v.53Zm-8.89-4.141v1.09h-1.245v6.585H47.89v-6.585h-1.214v-1.09h3.612Zm3.13 1.962v5.713h-1.043v-.623c-.405.467-.8.7-1.183.7-.343 0-.56-.144-.654-.435-.062-.166-.093-.446-.093-.84v-4.515h1.027v4.203c0 .25.005.384.016.405.01.155.088.233.233.233.208 0 .426-.16.654-.482v-4.36h1.043Zm3.923 1.728v2.273c0 .54-.036.918-.109 1.136-.124.436-.4.654-.825.654-.363 0-.716-.213-1.059-.638v.56h-1.043v-7.675h1.043v2.506c.333-.415.685-.622 1.06-.622.425 0 .7.218.824.654.073.218.11.602.11 1.152Zm3.908 2.008v.14a5.2 5.2 0 0 1-.031.67 1.464 1.464 0 0 1-.234.622c-.28.415-.695.623-1.245.623-.54 0-.96-.197-1.261-.592-.218-.28-.327-.726-.327-1.339v-2.008c0-.612.104-1.058.311-1.339.301-.394.716-.591 1.246-.591.529 0 .934.197 1.214.591.218.29.327.737.327 1.34v1.182h-2.07v1.012c0 .53.176.794.529.794.249 0 .404-.135.467-.405l.007-.108c.006-.063.008-.148.008-.257v-.335h1.059ZM54.226 5.122V7.55c0 .53-.166.794-.499.794-.332 0-.498-.264-.498-.794V5.122c0-.54.166-.81.498-.81.333 0 .499.27.499.81Zm8.297 11.1c0-1.837-.098-3.186-.295-4.048a2.13 2.13 0 0 0-.67-1.144 2.102 2.102 0 0 0-1.183-.537c-1.412-.156-3.55-.234-6.414-.234-2.854 0-4.987.078-6.399.234a2.15 2.15 0 0 0-1.853 1.681c-.207.903-.31 2.252-.31 4.048 0 1.827.103 3.176.31 4.048.105.446.325.825.663 1.136.337.311.729.493 1.175.545 1.422.156 3.56.233 6.414.233 2.854 0 4.992-.077 6.414-.233a2.042 2.042 0 0 0 1.175-.545c.338-.311.558-.69.662-1.136.208-.872.311-2.221.311-4.048ZM50.77 6.087l1.402-4.608h-1.168l-.794 3.036-.825-3.036H48.17l.373 1.074.358 1.074c.364 1.07.602 1.89.716 2.46v3.13h1.152v-3.13Zm4.5 1.261V5.324c0-.602-.11-1.053-.327-1.354-.301-.395-.706-.592-1.215-.592-.529 0-.934.197-1.214.592-.218.3-.327.752-.327 1.354v2.024c0 .602.11 1.054.327 1.355.28.394.685.591 1.214.591.509 0 .914-.197 1.215-.591.218-.28.327-.732.327-1.355Zm2.817 1.868h1.044v-5.76h-1.044v4.406c-.228.322-.446.482-.653.482-.156 0-.24-.083-.25-.249-.01-.02-.015-.155-.015-.404V3.456h-1.043v4.562c0 .384.031.669.093.856.114.28.338.42.67.42.373 0 .773-.233 1.198-.7v.622Zm7.831-4.732v14.945c0 1.235-.438 2.291-1.315 3.168-.877.877-1.933 1.315-3.168 1.315H46.488c-1.235 0-2.29-.438-3.168-1.315-.877-.877-1.315-1.933-1.315-3.168V4.484c0-1.235.438-2.292 1.315-3.169C44.197.438 45.253 0 46.488 0h14.946c1.235 0 2.29.438 3.168 1.315.877.877 1.315 1.934 1.315 3.169Z" fill="#03539c" fill-rule="evenodd" data-name="iconfinder_youtube-square_1608383"/></svg>